<?xml version="1.0" encoding="UTF-8" standalone="no"?>
<!-- Generator: Adobe Illustrator 16.0.0, SVG Export Plug-In . SVG Version: 6.00 Build 0)  -->

<svg
   version="1.1"
   id="Ebene_1"
   x="0px"
   y="0px"
   width="176.467"
   height="167.097"
   viewBox="633.446 184.864 176.46699 167.097"
   enable-background="new 633.446 184.864 181.033 167.095"
   xml:space="preserve"
   sodipodi:docname="logo-cceh-white.svg"
   inkscape:version="1.2.1 (9c6d41e410, 2022-07-14)"
   xmlns:inkscape="http://www.inkscape.org/namespaces/inkscape"
   xmlns:sodipodi="http://sodipodi.sourceforge.net/DTD/sodipodi-0.dtd"
   xmlns="http://www.w3.org/2000/svg"
   xmlns:svg="http://www.w3.org/2000/svg"><defs
   id="defs15442" /><sodipodi:namedview
   id="namedview15440"
   pagecolor="#ffffff"
   bordercolor="#666666"
   borderopacity="1.0"
   inkscape:showpageshadow="false"
   inkscape:pageopacity="0.0"
   inkscape:pagecheckerboard="true"
   inkscape:deskcolor="#d1d1d1"
   showgrid="false"
   inkscape:zoom="3.9947862"
   inkscape:cx="46.060037"
   inkscape:cy="83.608981"
   inkscape:window-width="1920"
   inkscape:window-height="1011"
   inkscape:window-x="0"
   inkscape:window-y="0"
   inkscape:window-maximized="1"
   inkscape:current-layer="Ebene_1" />
<g
   id="g15395"
   transform="translate(-4.566,0.002)">
	<polyline
   fill="#ffffff"
   points="644.742,253.153 642.216,270.12 662.662,271.928 664.889,255.419  "
   id="polyline15391" />
	<polyline
   fill="#ffffff"
   points="647.039,278.286 649.61,261.626 644.759,255.345 642.041,271.249  "
   id="polyline15393" />
</g>
<g
   id="g15401"
   transform="translate(-4.566,0.002)">
	<polyline
   fill="#ffffff"
   points="650.535,216.265 648,233.238 668.452,235.04 670.676,218.533  "
   id="polyline15397" />
	<polyline
   fill="#ffffff"
   points="652.729,241.834 655.291,225.173 650.442,216.693 647.727,232.601  "
   id="polyline15399" />
</g>
<g
   id="g15407"
   transform="translate(-4.566,0.002)">
	<polyline
   fill="#ffffff"
   points="640.715,291.899 638.187,308.862 658.631,310.675 660.862,294.165  "
   id="polyline15403" />
	<polyline
   fill="#ffffff"
   points="643.015,317.03 645.586,300.371 640.728,291.893 638.012,307.797  "
   id="polyline15405" />
</g>
<path
   fill="#ffffff"
   d="m 782.002,210.983 -19.035,127.006 -2.104,0.287 c -0.472,0.115 -10.919,2.904 -43.14,4.914 -3.687,0.229 -7.997,0.347 -12.812,0.347 -23.695,0 -53.358,-2.823 -53.657,-2.854 l -0.068,-0.008 -0.048,0.342 114.312,10.944 20.267,-140.655 z"
   id="path15409" />
<path
   fill="none"
   d="m 730.136,198.043 c -9.562,2.039 -20.507,3.354 -30.337,4.204 10.19,0.092 21.471,-0.122 31.188,-1.07 15.991,-1.563 32.532,-3.126 41.745,-3.991 l 1.854,-12.32 c -6.831,2.559 -24.982,9.031 -44.45,13.177 z"
   id="path15411" />
<path
   fill="#ffffff"
   d="m 776.369,196.844 -19.276,128.069 -0.442,0.419 c -0.312,0.298 -8.037,7.297 -40.354,12.971 -6.725,1.181 -14.659,1.944 -22.555,2.442 8.413,0.122 16.785,0.056 23.736,-0.378 32.433,-2.024 42.83,-5.493 42.83,-5.493 l 19.771,-138.379 c -10e-4,0.002 -1.358,0.127 -3.71,0.349 z"
   id="path15413" />
<g
   id="g15419"
   transform="translate(-4.566,0.002)">
	<path
   fill="#ffffff"
   d="m 722.122,251.71 c -4.388,1.159 -9.263,5.938 -14.639,14.343 -5.378,8.406 -8.974,16.872 -10.807,25.4 7.704,-5.305 13.765,-10.55 18.188,-15.738 2.98,-3.513 5.479,-7.104 7.493,-10.772 2.018,-3.663 3.188,-6.806 3.508,-9.409 0.408,-3.313 -0.84,-4.587 -3.743,-3.824 z"
   id="path15415" />
	<path
   fill="#ffffff"
   d="m 734.7,198.041 c -9.562,2.039 -20.507,3.354 -30.335,4.204 -12.392,1.067 -23.011,1.395 -26.85,1.48 l -3.155,-0.078 -18.278,134.122 3.141,0.229 c 1.886,0.034 5.017,0.073 8.947,0.073 12.517,0 35.929,-0.422 52.076,-3.262 26.861,-4.715 36.104,-10.309 38.104,-11.729 l 18.95,-125.898 1.854,-12.32 c -6.834,2.562 -24.985,9.033 -44.454,13.179 z m -2.959,57.472 c -0.664,5.428 -4.163,11.598 -10.496,18.52 -6.339,6.923 -14.631,13.571 -24.876,19.955 -0.139,0.584 -0.254,1.229 -0.339,1.928 -0.596,4.862 0.2,8.489 2.392,10.88 2.186,2.393 5.302,3.053 9.35,1.98 3.169,-0.836 6.369,-2.685 9.59,-5.545 3.223,-2.861 6.792,-6.956 10.71,-12.283 l 1.626,1.107 c -4.892,6.877 -9.482,12.133 -13.783,15.75 -4.297,3.622 -8.733,6.037 -13.322,7.25 -5.465,1.438 -9.618,0.695 -12.456,-2.242 -2.833,-2.935 -3.871,-7.535 -3.104,-13.809 0.783,-6.342 3.178,-13.192 7.184,-20.559 4.006,-7.357 8.682,-13.807 14.028,-19.346 5.35,-5.534 10.383,-8.923 15.105,-10.17 2.766,-0.728 4.938,-0.483 6.518,0.737 1.577,1.22 2.204,3.169 1.873,5.847 z m -14.168,-20.756 c 1.974,1.81 4.604,2.289 7.898,1.42 1.702,-0.45 3.184,-1.122 4.439,-2.012 0.703,-0.467 1.439,-1.036 2.217,-1.719 0.771,-0.678 1.595,-1.466 2.467,-2.368 l -0.747,6.101 c -2.97,2.371 -5.979,3.958 -9.021,4.762 -4.577,1.209 -8.293,0.565 -11.108,-1.92 -2.815,-2.517 -3.928,-6.151 -3.347,-10.905 0.526,-4.262 2.345,-8.424 5.449,-12.474 3.826,-4.965 8.375,-8.143 13.646,-9.533 2.879,-0.761 5.558,-0.681 8.045,0.238 l -0.73,5.973 c -2.501,-1.706 -5.235,-2.167 -8.228,-1.376 -3.297,0.868 -6.223,2.834 -8.78,5.902 -2.571,3.055 -4.078,6.36 -4.517,9.916 -0.428,3.511 0.343,6.175 2.317,7.995 z m 43.06,35.932 -4.876,1.275 2.39,-15.63 -13.933,3.646 -2.395,15.63 -4.875,1.277 5.123,-33.476 4.875,-1.275 -2.005,13.095 13.932,-3.645 2.007,-13.1 4.875,-1.273 z m 8.461,-66.935 c -2.469,-1.704 -5.204,-2.164 -8.206,-1.373 -3.307,0.867 -6.267,2.837 -8.876,5.9 -2.615,3.055 -4.174,6.361 -4.667,9.916 -0.485,3.514 0.237,6.177 2.18,7.993 1.948,1.816 4.574,2.289 7.881,1.42 1.71,-0.449 3.2,-1.116 4.478,-2.012 0.709,-0.465 1.453,-1.031 2.238,-1.717 0.78,-0.678 1.618,-1.466 2.504,-2.37 l -0.846,6.103 c -3.009,2.371 -6.041,3.956 -9.098,4.763 -4.602,1.208 -8.295,0.565 -11.082,-1.917 -2.77,-2.521 -3.826,-6.156 -3.166,-10.91 0.592,-4.262 2.476,-8.419 5.646,-12.472 3.903,-4.967 8.501,-8.145 13.796,-9.533 2.896,-0.759 5.576,-0.68 8.046,0.237 z"
   id="path15417" />
</g>
<g
   id="g15425"
   transform="translate(-4.566,0.002)">
	<polyline
   fill="#ffffff"
   points="807.035,248.826 809.603,232.165 791.688,230.815 789.467,247.333  "
   id="polyline15421" />
	<polyline
   fill="#ffffff"
   points="811.913,257.428 814.479,240.767 809.629,232.287 806.91,248.194  "
   id="polyline15423" />
</g>
<g
   id="g15431"
   transform="translate(-4.566,0.002)">
	<polyline
   fill="#ffffff"
   points="802.171,286.924 804.735,270.267 786.821,268.917 784.599,285.433  "
   id="polyline15427" />
	<polyline
   fill="#ffffff"
   points="807.106,295.761 809.674,279.099 804.82,270.62 802.103,286.526  "
   id="polyline15429" />
</g>
<g
   id="g15437"
   transform="translate(-4.566,0.002)">
	<polyline
   fill="#ffffff"
   points="796.34,325.047 798.86,308.079 781.146,306.614 778.924,323.131  "
   id="polyline15433" />
	<polyline
   fill="#ffffff"
   points="801.129,333.39 803.694,316.728 798.843,308.246 796.123,324.153  "
   id="polyline15435" />
</g>
</svg>
